<?xml version="1.0" encoding="UTF-8"?>
<svg width="80px" height="80px" viewBox="0 0 80 80" version="1.1" xmlns="http://www.w3.org/2000/svg" xmlns:xlink="http://www.w3.org/1999/xlink">
    <!-- Generator: Sketch 51.1 (57501) - http://www.bohemiancoding.com/sketch -->
    <title>img_grid</title>
    <desc>Created with Sketch.</desc>
    <defs>
        <rect id="path-1" x="0" y="0" width="80" height="80"></rect>
    </defs>
    <g id="img_grid" stroke="none" stroke-width="1" fill="none" fill-rule="evenodd">
        <g>
            <mask id="mask-2" fill="white">
                <use xlink:href="#path-1"></use>
            </mask>
            <g id="Mask"></g>
            <g id="Group-3" opacity="0.0299999993" mask="url(#mask-2)">
                <g transform="translate(-133.000000, -151.000000)">
                    <g id="Group" transform="translate(38.000000, 0.000000)">
                        <rect id="Rectangle-2-Copy-11" fill="#000000" x="99" y="0" width="1" height="382"></rect>
                        <rect id="Rectangle-2-Copy-12" fill="#000000" x="108" y="0" width="1" height="382"></rect>
                        <rect id="Rectangle-2-Copy-13" fill="#000000" x="117" y="0" width="1" height="382"></rect>
                        <rect id="Rectangle-2-Copy-14" fill="#000000" x="126" y="0" width="1" height="382"></rect>
                        <rect id="Rectangle-2-Copy-15" fill="#000000" x="135" y="0" width="1" height="382"></rect>
                        <rect id="Rectangle-2-Copy-16" fill="#000000" x="144" y="0" width="1" height="382"></rect>
                        <rect id="Rectangle-2-Copy-17" fill="#000000" x="153" y="0" width="1" height="382"></rect>
                        <rect id="Rectangle-2-Copy-18" fill="#000000" x="162" y="0" width="1" height="382"></rect>
                        <rect id="Rectangle-2-Copy-19" fill="#000000" x="171" y="0" width="1" height="382"></rect>
                    </g>
                    <g id="Group-2" transform="translate(0.000000, 6.000000)">
                        <rect id="Rectangle-3-Copy-17" fill="#000000" x="0" y="153" width="346" height="1"></rect>
                        <rect id="Rectangle-3-Copy-18" fill="#000000" x="0" y="162" width="346" height="1"></rect>
                        <rect id="Rectangle-3-Copy-19" fill="#000000" x="0" y="171" width="346" height="1"></rect>
                        <rect id="Rectangle-3-Copy-20" fill="#000000" x="0" y="180" width="346" height="1"></rect>
                        <rect id="Rectangle-3-Copy-21" fill="#000000" x="0" y="189" width="346" height="1"></rect>
                        <rect id="Rectangle-3-Copy-22" fill="#000000" x="0" y="198" width="346" height="1"></rect>
                        <rect id="Rectangle-3-Copy-23" fill="#000000" x="0" y="207" width="346" height="1"></rect>
                        <rect id="Rectangle-3-Copy-24" fill="#000000" x="0" y="216" width="346" height="1"></rect>
                    </g>
                </g>
            </g>
        </g>
    </g>
</svg>