<?xml version="1.0" encoding="UTF-8"?>
<svg width="72px" height="72px" viewBox="0 0 72 72" version="1.1" xmlns="http://www.w3.org/2000/svg" xmlns:xlink="http://www.w3.org/1999/xlink">
    <!-- Generator: Sketch 51.1 (57501) - http://www.bohemiancoding.com/sketch -->
    <title>ic_iterate</title>
    <desc>Created with Sketch.</desc>
    <defs></defs>
    <g id="ic_iterate" stroke="none" stroke-width="1" fill="none" fill-rule="evenodd">
        <g>
            <rect id="Rectangle-8" x="0" y="0" width="72" height="72"></rect>
            <path d="M68.04,54.8107293 L57.456,48.6187293 C57.24,48.4747293 56.952,48.4747293 56.736,48.6187293 C56.52,48.7627293 56.376,48.9787293 56.376,49.1947293 L56.376,53.9467293 L45.504,53.9467293 C50.472,50.7787293 53.712,45.3067293 53.712,39.0427293 C53.712,29.3227293 45.792,21.4027293 36.072,21.4027293 C30.96,21.4027293 26.424,23.5627293 23.184,27.0187293 C21.168,28.2427293 18.576,28.3867293 16.488,27.2347293 C14.904,26.3707293 13.752,25.0027293 13.176,23.2747293 C12.6,21.5467293 12.816,19.7467293 13.68,18.1627293 C14.544,16.5787293 15.912,15.4267293 17.64,14.8507293 C18.504,14.5627293 19.44,14.4907293 20.304,14.5627293 L19.656,15.8587293 C19.512,16.0747293 19.584,16.3627293 19.728,16.5787293 C19.872,16.7947293 20.088,16.8667293 20.304,16.8667293 C20.304,16.8667293 20.304,16.8667293 20.376,16.8667293 L26.496,16.5067293 C26.712,16.5067293 27,16.3627293 27.072,16.1467293 C27.216,15.9307293 27.144,15.6427293 27,15.4267293 L23.616,10.3867293 C23.472,10.1707293 23.256,10.0267293 22.968,10.0987293 C22.752,10.0987293 22.464,10.2427293 22.392,10.4587293 L21.6,11.8987293 C20.016,11.5387293 18.36,11.6107293 16.776,12.1147293 C14.328,12.8347293 12.312,14.4907293 11.16,16.7947293 C8.712,21.4747293 10.512,27.2347293 15.12,29.6827293 C16.488,30.4027293 18.072,30.7627293 19.584,30.7627293 C19.872,30.7627293 20.16,30.7627293 20.448,30.6907293 C19.8,31.9147293 19.296,33.2107293 18.936,34.6507293 L13.896,34.8667293 C13.68,34.8667293 13.392,35.0107293 13.32,35.2267293 C13.176,35.4427293 13.176,35.7307293 13.32,35.9467293 L19.728,46.2427293 C19.872,46.4587293 20.088,46.6027293 20.304,46.6027293 C20.304,46.6027293 20.304,46.6027293 20.304,46.6027293 C20.52,46.6027293 20.808,46.4587293 20.88,46.2427293 L26.64,35.4427293 C26.784,35.2267293 26.784,34.9387293 26.64,34.7227293 C26.496,34.5067293 26.28,34.3627293 25.992,34.3627293 L21.816,34.5067293 C23.76,28.5307293 29.376,24.1387293 36,24.1387293 C44.208,24.1387293 50.904,30.8347293 50.904,39.0427293 C50.904,47.2507293 44.208,53.9467293 36,53.9467293 L36,54.0187293 L3.6,54.0187293 L3.6,56.6827293 L36,56.6827293 L36,56.7547293 C36.432,56.7547293 36.864,56.7547293 37.296,56.6827293 L56.376,56.6827293 L56.376,61.4347293 C56.376,61.6507293 56.52,61.9387293 56.736,62.0107293 C56.88,62.0827293 56.952,62.0827293 57.096,62.0827293 C57.24,62.0827293 57.312,62.0827293 57.456,62.0107293 L68.04,56.0347293 C68.256,55.8907293 68.4,55.6747293 68.4,55.4587293 C68.4,55.1707293 68.256,54.8827293 68.04,54.8107293 Z" id="Shape" fill="#474747" fill-rule="nonzero"></path>
        </g>
    </g>
</svg>