<?xml version="1.0" encoding="UTF-8"?>
<svg width="72px" height="72px" viewBox="0 0 72 72" version="1.1" xmlns="http://www.w3.org/2000/svg" xmlns:xlink="http://www.w3.org/1999/xlink">
    <!-- Generator: Sketch 51.1 (57501) - http://www.bohemiancoding.com/sketch -->
    <title>ic_listen</title>
    <desc>Created with Sketch.</desc>
    <defs></defs>
    <g id="ic_listen" stroke="none" stroke-width="1" fill="none" fill-rule="evenodd">
        <g>
            <rect id="Rectangle-5" x="0" y="0" width="72" height="72"></rect>
            <g id="Group" transform="translate(7.841584, 7.841584)" fill="#474747" fill-rule="nonzero">
                <path d="M41.5247525,28.750099 C41.7629086,28.3915908 41.7629086,27.9252409 41.5247525,27.5667327 C37.6823762,21.8067327 30.2542574,21.7425743 29.9405941,21.7425743 C25.3722776,21.7293867 21.0706388,23.8921183 18.3564356,27.5667327 C18.1182795,27.9252409 18.1182795,28.3915908 18.3564356,28.750099 C22.1988119,34.510099 29.6269307,34.5742574 29.9405941,34.5742574 C34.5089106,34.587445 38.8105493,32.4247134 41.5247525,28.750099 Z M20.5877228,28.179802 C22.4324123,26.0470667 24.9452307,24.6021961 27.7164356,24.0807921 C26.2423116,24.873431 25.3112276,26.4004331 25.2816613,28.0738858 C25.252095,29.7473385 26.1286571,31.3062779 27.5738614,32.150495 C24.8539055,31.6805933 22.3831699,30.2763079 20.5877228,28.179802 Z M29.9405941,25.6633663 C31.3185719,25.6633663 32.4356436,26.780438 32.4356436,28.1584158 C32.4356436,29.5363936 31.3185719,30.6534653 29.9405941,30.6534653 C28.5626163,30.6534653 27.4455446,29.5363936 27.4455446,28.1584158 C27.4455446,26.780438 28.5626163,25.6633663 29.9405941,25.6633663 Z M32.1433663,32.2360396 C33.6174904,31.4434007 34.5485743,29.9163985 34.5781406,28.2429458 C34.6077069,26.5694931 33.7311449,25.0105538 32.2859406,24.1663366 C35.0161598,24.6299735 37.4979175,26.0347896 39.3005941,28.1370297 C37.4485866,30.2753144 34.9248416,31.7206863 32.1433663,32.2360396 Z" id="Shape"></path>
                <path d="M36.3564356,34.8380198 C35.9371367,34.4187209 35.2573188,34.4187209 34.8380198,34.8380198 C34.4187209,35.2573188 34.4187209,35.9371367 34.8380198,36.3564356 L36.099802,37.6182178 C36.5211228,38.0108087 37.1776772,37.9992245 37.5848865,37.5920152 C37.9920958,37.1848059 38.00368,36.5282515 37.6110891,36.1069307 L36.3564356,34.8380198 Z" id="Shape"></path>
                <path d="M40.6336634,41.7029703 C41.0658653,41.7025901 41.4553413,41.4420665 41.6206864,41.0427424 C41.7860315,40.6434184 41.6947299,40.1838228 41.3893069,39.8780198 L40.1275248,38.6162376 C39.7062039,38.2236468 39.0496495,38.2352309 38.6424402,38.6424402 C38.2352309,39.0496495 38.2236468,39.7062039 38.6162376,40.1275248 L39.8780198,41.3893069 C40.0783614,41.5898982 40.3501611,41.7027207 40.6336634,41.7029703 Z" id="Shape"></path>
                <path d="M50.7706931,42.5013861 C51.6921029,43.0314646 52.4588586,43.7933052 52.9948515,44.7112871 C53.1795492,45.0562154 53.5378876,45.2727263 53.9291412,45.2757926 C54.3203947,45.2788588 54.6820825,45.0679907 54.8721636,44.7259996 C55.0622447,44.3840085 55.0503644,43.9655085 54.8411881,43.6348515 C54.1202569,42.389371 53.0854805,41.3545946 51.84,40.6336634 C51.5077179,40.4218849 51.0858921,40.4100079 50.7422201,40.6027539 C50.398548,40.7954999 50.1887261,41.1616322 50.1961693,41.5555942 C50.2036124,41.9495562 50.4271145,42.3075017 50.7778218,42.4871287 L50.7706931,42.5013861 Z" id="Shape"></path>
                <path d="M54.8910891,46.6788119 C54.2982283,46.6866134 53.8217309,47.1694641 53.8217822,47.7623762 C53.824022,48.825499 53.5461864,49.870456 53.0162376,50.7920792 C52.7443314,51.2956728 52.9171421,51.9240754 53.4083168,52.2178218 C53.5706762,52.312067 53.7552419,52.3612845 53.9429703,52.360396 C54.3252418,52.3606411 54.6785672,52.1567995 54.869703,51.8257426 C55.5811611,50.5894809 55.9571502,49.188737 55.960396,47.7623762 C55.9681891,47.4751614 55.8585079,47.1971912 55.6566915,46.9926839 C55.4548751,46.7881766 55.178382,46.6748235 54.8910891,46.6788119 Z" id="Shape"></path>
                <path d="M44.739802,53.0162376 C43.8176951,52.483922 43.0509166,51.7196012 42.5156436,50.7992079 C42.2183941,50.2795134 41.5561301,50.0991861 41.0364356,50.3964356 C40.5167412,50.6936851 40.3364139,51.3559491 40.6336634,51.8756436 C41.3627243,53.1306888 42.4103288,54.1709158 43.670495,54.8910891 C44.1823154,55.18637 44.8366002,55.0108302 45.1318812,54.4990099 C45.4271621,53.9871896 45.2516223,53.3329047 44.739802,53.0376238 L44.739802,53.0162376 Z" id="Shape"></path>
                <path d="M44.1980198,42.6653465 C44.385704,42.6658926 44.5701817,42.6166985 44.7326733,42.5227723 C45.6533043,41.988777 46.6980911,41.7060699 47.7623762,41.7029703 C48.3529381,41.7029703 48.8316832,41.2242253 48.8316832,40.6336634 C48.8316832,40.0431015 48.3529381,39.5643564 47.7623762,39.5643564 C46.324537,39.5701206 44.9134562,39.9536199 43.670495,40.6764356 C43.2494542,40.918769 43.0446786,41.414471 43.171934,41.8833067 C43.2991894,42.3521425 43.7264929,42.6762802 44.2122772,42.6724752 L44.1980198,42.6653465 Z" id="Shape"></path>
                <path d="M41.7029703,47.7623762 C41.7032296,46.7040869 41.9809806,45.6643641 42.5085149,44.7469307 C42.6995281,44.415841 42.6993974,44.0079971 42.508172,43.6770299 C42.3169466,43.3460627 41.9636781,43.142254 41.5814393,43.1423765 C41.1992006,43.1424989 40.8460628,43.3465341 40.6550495,43.6776238 C39.9406033,44.9204287 39.5645326,46.32885 39.5643564,47.7623762 C39.5605185,48.0477859 39.6717124,48.3227295 39.8728741,48.5252323 C40.0740358,48.727735 40.3482345,48.8407534 40.6336634,48.8388119 C41.2253765,48.8348932 41.7029833,48.3541024 41.7029703,47.7623762 Z" id="Shape"></path>
                <path d="M50.7920792,53.0091089 C49.8710171,53.5412358 48.8261029,53.8215186 47.7623762,53.8217822 C47.1718143,53.8217822 46.6930693,54.3005272 46.6930693,54.8910891 C46.6930693,55.481651 47.1718143,55.960396 47.7623762,55.960396 C49.2012115,55.9704799 50.6173584,55.6016917 51.8685149,54.8910891 C52.3803352,54.5958082 52.555875,53.9415233 52.2605941,53.429703 C51.9653131,52.9178826 51.3110282,52.7423428 50.7992079,53.0376238 L50.7920792,53.0091089 Z" id="Shape"></path>
                <path d="M20.7231683,21.7924752 C21.1585232,21.7950261 21.5519588,21.533378 21.7179592,21.1309054 C21.8839596,20.7284327 21.7893778,20.2655012 21.4788119,19.960396 L15.0629703,13.5445545 C17.7206121,10.1191164 17.263653,5.21904086 14.0184638,2.3440743 C10.7732746,-0.530892249 5.85384676,-0.393846347 2.77374862,2.65733068 C-0.306349514,5.70850771 -0.489797981,10.6264238 2.35442633,13.8985903 C5.19865064,17.1707569 10.0941973,17.6739217 13.5445545,15.0487129 L19.960396,21.4645545 C20.1601064,21.6721391 20.4351212,21.7903697 20.7231683,21.7924752 Z M8.55445545,14.6138614 C5.75810189,14.6108949 3.32515096,12.6990397 2.66101727,9.98269506 C1.99688359,7.26635038 3.27322125,4.4475913 5.75274306,3.15469779 C8.23226486,1.86180428 11.2741057,2.4289417 13.1211206,4.52849835 C14.9681354,6.62805499 15.142939,9.71737276 13.5445545,12.0118812 L9.33148515,7.79881188 C8.91016431,7.40622103 8.2536099,7.41780517 7.8464006,7.82501446 C7.43919131,8.23222376 7.42760717,8.88877817 7.82019802,9.31009901 L12.0118812,13.5445545 C10.9962507,14.246945 9.78929033,14.6202317 8.55445545,14.6138614 Z" id="Shape"></path>
                <path d="M52.0823762,46.1441584 C52.4749671,45.7228376 52.463383,45.0662832 52.0561737,44.6590739 C51.6489644,44.2518646 50.9924099,44.2402804 50.5710891,44.6328713 L46.5718812,48.6320792 L44.9536634,47.0138614 C44.5323425,46.6212705 43.8757881,46.6328547 43.4685788,47.040064 C43.0613695,47.4472733 43.0497854,48.1038277 43.4423762,48.5251485 L45.8162376,50.8990099 C46.2337201,51.3159731 46.9100423,51.3159731 47.3275248,50.8990099 L52.0823762,46.1441584 Z" id="Shape"></path>
            </g>
        </g>
    </g>
</svg>